<svg width="168" height="55" fill="none" xmlns="http://www.w3.org/2000/svg"><path d="M9.915 7.106l11.213 22.617-4.83 9.32L0 7.128l9.915-.022zm20.49 3.256c0 4.149-5.17 10.978-5.17 10.978a23.149 23.149 0 00-7.341-14.234h9.042a3.319 3.319 0 013.383 3.256h.085zm14.808 28c-8.766 0-13.085-1.15-13.085-6.383 0-5.234 4.255-6.532 13.085-6.532a6.766 6.766 0 00-4.15 6.532 6.701 6.701 0 004.15 6.383zm-9.51-19.277a3.702 3.702 0 113.701 3.724 3.683 3.683 0 01-3.702-3.724zm22.36 6.128v13.213h-8.872V20.149c0-5.106-2.127-6.702-2.127-6.702 7.893 0 11 2.979 11 11.702v.064zm7.171-7.83l8.894-3.936v24.915h-8.894V17.383zm26.404 5.043v15.936h-8.893V21.787c0-3.212-1.213-4.723-2.83-5.127a6.255 6.255 0 00-2.766 0 11.808 11.808 0 017.638-3.298c5.32.085 6.851 3.787 6.851 9.064zM97 24.17a10.639 10.639 0 017-9.66c-.447 1.745.511 6.575 2.915 11.128a21.079 21.079 0 007.277 8.511c-1.438.415-2.93.615-4.426.596C102.404 34.85 97 30.064 97 24.17zm26.66 21.979a9.323 9.323 0 01-3.703 8.83s2.958-6.873-5.851-6.873h-8.127c-4.83 0-7.873-2.127-7.873-5.574 0-4.468 5.064-6.49 5.064-6.49s-1.979 3.937 2.532 3.937h9.128c4.106 0 8.255 1.872 8.83 6.17zm-18.256-32.085a15.006 15.006 0 014.362-.617c7.425 0 12.766 4.766 12.766 10.638a10.64 10.64 0 01-6.979 9.596c.447-1.745-.489-6.575-2.936-11.128a21.02 21.02 0 00-7.213-8.49zm11.915-4.255a8.3 8.3 0 00-5.681 2.766s1.447-6.745 6.383-8.17c2.894-.81 5.979 2.723 3.788 7.531a6.216 6.216 0 00-4.49-2.149v.022zm20.596-4.532a5.275 5.275 0 01-6.314 5.173A5.275 5.275 0 01132.66 0a5.234 5.234 0 015.255 5.277zm-9.724 12.106l8.873-3.936v24.915h-8.873V17.383zm26.852 20.979c-8.766 0-13.107-1.15-13.107-6.383 0-5.234 4.255-6.532 13.107-6.532a6.765 6.765 0 00-4.256 6.532 6.703 6.703 0 004.256 6.383zm-9.532-19.277a3.724 3.724 0 113.723 3.724 3.7 3.7 0 01-3.723-3.724zm22.383 6.128v13.213H159V20.149c0-5.106-2.128-6.702-2.128-6.702 7.894 0 11.022 2.979 11.022 11.702v.064z" fill="#0F1428"/></svg>