<svg width="153" height="118" fill="none" xmlns="http://www.w3.org/2000/svg"><g clip-path="url(#clip0_367_45)"><path d="M54.42 10.6c-16.61 4.31-32.65 13.31-42 27.73-5.77 8.93-8.66 19.43-10.16 30-.76 5.29-1.11 11 1.43 15.68 2.26 4.17 6.44 6.88 10.45 9.41 14.76 9.33 29.93 18.83 47 22.45 12.16 2.58 24.78 2.06 37.11.48 11.24-1.43 22.68-3.85 32.18-10 18.2-11.87 25.77-36.42 20.4-57.39-4.29-16.74-19.34-39.23-37.17-44C97.63.69 70.02 6.55 54.42 10.6z" fill="#EEFBFF"/><path d="M74.26 43.08c.04.105.098.203.17.29a62.718 62.718 0 0014.91 12.11c-.194.479-.422.943-.68 1.39-.7 1.18-1.45 2.37-2.2 3.56a76.278 76.278 0 00-4.32 7.41 9.833 9.833 0 00-1.16 2.5c-.65 2.52.54 5.41 3 7.38a21.2 21.2 0 004.59 2.55c.56.25 1.12.5 1.67.78.55.28 1.09.56 1.63.85a27.346 27.346 0 003.86 1.81 10.51 10.51 0 003.34.59 7.19 7.19 0 003.57-.89 8.164 8.164 0 003.77-6.31c.16-1.892.083-3.797-.23-5.67l-.12-.95a55.652 55.652 0 01-.41-7.86c1.33.32 2.64.73 4 1.18a31.12 31.12 0 007.87 1.81c1.077.043 2.155.027 3.23-.05h1.38c1.432.014 2.86.148 4.27.4l1.25.17h.18c.195.038.392.061.59.07a5.09 5.09 0 004-2.14 9.142 9.142 0 001.5-4.45c.82-7.57-2.55-14.88-5.77-21.14-1.86-3.61-3.79-7.06-6.9-9.5-8-6.26-18-4.09-26.78-2.17a73.631 73.631 0 01-10 1.72l-1.9.13c-3.38.2-6.87.4-10.05 1.95a6 6 0 00-2.92 2.57 5.939 5.939 0 00.52 5.61 13.82 13.82 0 004.14 4.3zm31.77 14c1.83.18 3.67.3 5.51.3a54.836 54.836 0 009.64-.85s.07-.05.11-.07a6.615 6.615 0 011.36 1.83c.034.082.064.165.09.25a42.887 42.887 0 01-9.27.41c-1.14-.11-2.31-.31-3.43-.51-1.32-.23-2.67-.46-4-.56-.02-.24-.01-.51-.01-.77v-.03zm0-.7a7.48 7.48 0 00-.11-.83c3.178-.41 6.313-1.1 9.37-2.06.371-.11.735-.244 1.09-.4a22.086 22.086 0 013.57 2.17c.28.21.53.42.77.63a54.371 54.371 0 01-14.73.52l.04-.03zm9.05-3.57a52.655 52.655 0 01-9.36 2 5.619 5.619 0 00-.48-1 23.002 23.002 0 005.34-2.85 31.4 31.4 0 014.92 1.69l-.42.16zm-10.26.43a7.546 7.546 0 00-.92-1l1.87-2.26c1.31.2 2.62.45 3.9.76a22.862 22.862 0 01-4.89 2.53l.04-.03zm-1.47-1.43l-.3-.24c.314-.636.685-1.242 1.11-1.81l.79.11-1.6 1.94zm-.9-.64a13.9 13.9 0 00-1.79-.88 16.08 16.08 0 00-2.52-.79l.1-.34 1.51.13c1.19.1 2.38.22 3.58.37-.345.49-.653 1.004-.92 1.54l.04-.03zm-5-1.8a8.881 8.881 0 00-1.94-.08h-.14c-.17 0-.31.07-.47.09 0-.18-.14-.36-.2-.54l2.77.24h.06l-.08.29zm-3.53-.6c.108.248.202.502.28.76a5.29 5.29 0 00-2.51 1.61 13.34 13.34 0 01-3.31-3.05c1.78.32 3.63.54 5.48.71l.06-.03zm-6.54-.83a14.13 14.13 0 003.87 3.76 7.48 7.48 0 00-.48.76 23 23 0 01-5.21-4.88c.54.15 1.15.28 1.76.39l.06-.03zm-2.85-.59a23.602 23.602 0 003.66 4 61.306 61.306 0 01-6.27-4.73c.82.3 1.67.553 2.55.76l.06-.03zm19.1 29.39a5.473 5.473 0 01-2.36 4.18 5.76 5.76 0 01-4.59.09 23.77 23.77 0 01-3.44-1.63c-.57-.3-1.13-.61-1.71-.9-.58-.29-1.18-.55-1.77-.82a18.775 18.775 0 01-4-2.18c-1.32-1-2.47-2.82-2.05-4.45.222-.661.531-1.29.92-1.87a77.748 77.748 0 014.21-7.24c.77-1.21 1.53-2.41 2.25-3.63.46-.806.857-1.645 1.19-2.51.93-2.26 1.5-3.45 3.34-3.63h.06a8.701 8.701 0 013.85.81c.636.24 1.24.555 1.8.94 2 1.48 2 2.49 1.71 5.17a50.97 50.97 0 00.23 11.73l.12 1c.279 1.631.36 3.29.24 4.94zm18.47-14.09l-1.44.06c-.979.05-1.961.05-2.94 0a28.269 28.269 0 01-7.15-1.68c-1.53-.49-3.11-1-4.73-1.35v-.35c0-.11.06-.51.08-.76 1.33.1 2.67.32 4 .55 1.14.2 2.31.4 3.49.51.857.085 1.718.125 2.58.12a58.113 58.113 0 007-.55c.11.37.21.76.31 1.16.16.6.31 1.2.51 1.78.07.19.15.37.22.55a14.44 14.44 0 00-1.93-.04zM72.2 34.4c.39-.6.96-1.058 1.63-1.31 2.67-1.3 5.73-1.48 9-1.68.667 0 1.317-.04 1.95-.12a78.72 78.72 0 0010.36-1.81 63.135 63.135 0 0113.11-1.93 17.632 17.632 0 0111.32 3.56c2.66 2.09 4.42 5.25 6.13 8.57 3 5.89 6.21 12.75 5.47 19.53a6.208 6.208 0 01-1 3.08 2.17 2.17 0 01-2 1 2.894 2.894 0 01-1.7-2 15.72 15.72 0 01-.44-1.52 13.565 13.565 0 00-.84-2.6 11.198 11.198 0 00-3.61-4.1c-6.11-4.59-14-5.85-21.66-6.53l-2.31-.19c-6.43-.54-13.08-1.1-18.82-3.82a13.39 13.39 0 01-6.16-5.16 3.24 3.24 0 01-.43-2.97zm-55.76 2.28l11.28 1.27a38.461 38.461 0 01-.9 12.82 16.656 16.656 0 00-.55 4.21 8.23 8.23 0 00-2.13 1.86c-1.58 1.78-2.12 5.51-1.95 8.22.12 1.88.61 4.41 2.26 5.84 1.34 1.17 3.4 1.59 5.83 1.59a52.302 52.302 0 009.29-1.17l1.74-.32a4.01 4.01 0 00.52-.12c.159.065.328.099.5.1h.22a7.63 7.63 0 005.3-4 14 14 0 001.48-6 28.998 28.998 0 00-.45-7 4.34 4.34 0 00-.49-1.46 4 4 0 00-3.88-1.77 6.34 6.34 0 00-1.21.19c-1.19-3.691-2-7.494-2.42-11.35 0-.12 0-.24-.05-.36 1.56.1 3.1.18 4.62.18 5.93 0 11.49-1 16.33-4.06a14.87 14.87 0 005.94-6.73c1.77-4.37.68-10-2.77-14.34-3.11-3.92-7.59-6.47-11.55-8.45a112.414 112.414 0 00-10.43-4.57c-8.82-3.34-13.34.19-19.59 5.09L2.85 22.48a7.18 7.18 0 00-2.59 3.06c-.86 2.37.52 4.8 2.1 6.29 3.95 3.72 9.81 4.37 14.08 4.85zm19.79 2.21a111.9 111.9 0 002.6 13c.11.454.246.902.41 1.34l-.29.26c-.483.473-.934.977-1.35 1.51a116.22 116.22 0 01-2.25-16.18l.88.07zm-1.59-.17a118.733 118.733 0 002.39 17c-.26.37-.52.76-.77 1.17l-.91-.34-1.8-.64-1.27-17.43 2 .22.36.02zm-3.08-.35l1.26 17.28-1.27-.45c.32-5.615.25-11.245-.21-16.85l.22.02zm-.93-.1c.453 5.548.527 11.121.22 16.68a9.64 9.64 0 00-1.75-.47c.062-1.06.23-2.112.5-3.14a41.693 41.693 0 001-13.07h.03zm8.4 30.27c-3.46.65-10.66 2-12.73.22-.69-.59-1.17-2-1.29-3.88-.18-2.74.51-5.33 1.24-6.15a4.21 4.21 0 011.8-1.44 4.171 4.171 0 012 .39l4.32 1.54c2.31.82 4.63 1.78 5.43 3.65.281.778.443 1.594.48 2.42l.3 3-1.55.25zm5.65-14.91a1.459 1.459 0 011.25.35c.076.186.126.38.15.58.391 2.062.529 4.164.41 6.26a11.26 11.26 0 01-1.14 4.78 5.48 5.48 0 01-1.94 2.07l-.28-2.7a10.862 10.862 0 00-.7-3.22 7.77 7.77 0 00-3.58-3.67 13 13 0 012.07-2.58 6.15 6.15 0 013.76-1.87zm-6.63-13.69a59.998 59.998 0 002.58 12.17 9.65 9.65 0 00-.86.61c-.11-.33-.2-.67-.3-1a114.218 114.218 0 01-2.55-12.73l.94.09a6.2 6.2 0 01.19.86zM2.93 26.48a4.71 4.71 0 011.67-1.79L25.12 8.61c6.13-4.8 9.51-7.45 16.84-4.67 3.46 1.31 6.85 2.796 10.16 4.45 3.69 1.85 7.83 4.2 10.6 7.68 2.77 3.48 3.76 8.08 2.37 11.52A12.37 12.37 0 0160.24 33c-7 4.49-16.11 3.91-25.61 2.85l-17.87-2c-5-.56-9.44-1.26-12.45-4.09-.89-.82-1.77-2.18-1.38-3.28z" fill="#0F1428"/></g><defs><clipPath id="clip0_367_45"><path fill="#fff" d="M0 0h152.52v117.63H0z"/></clipPath></defs></svg>