<svg width="186" height="173" fill="none" xmlns="http://www.w3.org/2000/svg"><g clip-path="url(#clip0_367_52)"><path d="M63.38 49.92c-12.23 5.22-21.89 15.1-30 25.66-7.85 10.22-14.55 21.28-21.23 32.3-3.29 5.43-6.63 11-8 17.19-3 14 5.37 28.65 17.29 36.6 11.92 7.95 26.7 10.33 41 10.87 17.29.65 35.27-1.3 50.25-10 5.83-3.37 11.19-7.82 14.64-13.61 3.29-5.51 4.69-11.91 5.88-18.22 2.68-14.27 4.53-29 1.93-43.26-5.8-32.33-40.92-50.71-71.76-37.53z" fill="#FFF8D9"/><path d="M147.51 73.07a.764.764 0 00.16 0 1.41 1.41 0 001.41-.68 27.75 27.75 0 012.3-3.18l.85-1.07a24.577 24.577 0 004.08-21.67 2.808 2.808 0 00-.71-1.27 2.66 2.66 0 00-3.13-.23c-2.22 1.11-3.91 3.38-5 6.75-2.1 6.38-2.49 14.54-1 20.31a1.39 1.39 0 001.04 1.04zm2.62-20.43c.85-2.59 2-4.3 3.53-5.07a21.697 21.697 0 01-3.68 18.87l-.83 1-.53.67a38.137 38.137 0 011.51-15.47zm7.46 15.96a2.81 2.81 0 001.7 1.59l.23.07c2.91.74 6.35-2.88 9.47-6.72a20.45 20.45 0 005-13.23 2.463 2.463 0 00-1.39-2.47 2.67 2.67 0 00-1.81 0c-4.6 1.4-8.59 5.23-11 10.48s-3.02 8.4-2.2 10.28zm4.77-9.13a16.01 16.01 0 018.76-8.77 17.996 17.996 0 01-4.47 11.22c-4.83 5.93-6.29 5.63-6.44 5.6-.15-.03-.91-1.23 2.15-8.03v-.02z" fill="#0F1428"/><path d="M179.74 66.91c-.24 0-18 1.45-19.33 7a114.743 114.743 0 00-44 7.73c-2.58 1-4.91 2-7.07 3.08.347-1.405.577-2.837.69-4.28.06-.54.12-1 .18-1.47a57.207 57.207 0 00-2.94-28 1.42 1.42 0 00-2.65 0L100.3 62.3c-1.72 4.51-3.67 9.62-3.26 15 .27 3.35 2.16 8.95 6.27 10.83-.47.3-.94.6-1.4.92a64.259 64.259 0 00-25.3 32.85c-.13-.91-.23-1.79-.38-2.71-.34-2.23-.73-4.46-1.13-6.69-1.42-8.1-2.89-16.48-2.19-24.68 1-12.13 6.84-23.44 11.78-31.95a218.618 218.618 0 0112.72-19.4c.37 3.45 5.3 6.93 5.35 7a16 16 0 005 2.25 16.25 16.25 0 006.18.36 8.4 8.4 0 005.62-2.73c1.52-1.85 1.8-5-.21-6.79a6.59 6.59 0 00-2.88-1.32c-.61-.15-1.36-.37-2.2-.61-5.54-1.58-10.76-2.9-14-1.9.81-1.07 1.64-2.12 2.48-3.17a47.33 47.33 0 007.53 2.87c1.527.45 3.128.592 4.71.42a38.861 38.861 0 008.54-2.71c2.75-1.11 5.87-2.37 8.29-4.63 1.73-1.62 2.89-4.27 1.34-6.27a5.008 5.008 0 00-3.64-1.64 42.702 42.702 0 00-17.06 2c.417-.707.752-1.458 1-2.24a48.895 48.895 0 001.91-13.5c.08-2.8-1.41-3.49-2.06-3.66a3.249 3.249 0 00-2.84.9c-3.32 2.83-5.43 7.16-6.45 13.22l-.16 1.06c-.24 1.58-.47 2.94-.71 4.11a93.537 93.537 0 00-3-11.53c-.54-1.61-1.49-3.77-3.63-4.32h-.24a4.47 4.47 0 00-4.74 2.89 9 9 0 00-.29 4.75c.63 4.36 1.8 10.65 4.67 14.89.48.72 1.75 2.58 3.49 3.1-1.27 1.61-2.52 3.25-3.75 4.9a30.17 30.17 0 00-2.19-6.23 15.14 15.14 0 00-7.69-7.81c-2-.82-3.93-.62-5.06.57a3.86 3.86 0 00-.75 3.84 8.35 8.35 0 001.58 2.65c.49.62 1.11 1.51 1.83 2.54 3.18 4.54 6 8.38 8.71 9.39a205.4 205.4 0 00-7.8 12 27.18 27.18 0 00-2.81-7.38 23.37 23.37 0 00-12.12-10.91 1.4 1.4 0 00-1.7.54c-1.06 1.62-.35 3.61-.08 4.36 2.11 5.9 7.09 14 14.22 17.6-5 8.67-10.66 20.05-11.71 32.38-.1 1.13-.15 2.27-.18 3.4-7.07-12.08-17.77-20-29.19-28.12a7.24 7.24 0 002.21-1.54 21.67 21.67 0 005.84-12.71c.17-2-.7-3.48-2.18-3.73a3 3 0 00-1.44.13 10.32 10.32 0 00-5.81 4.85 18.8 18.8 0 00-2.17 6.84 12.67 12.67 0 00-.09 3.59l-3.59-2.55c2.08-2 2.6-6.37 2.71-7.84a15.44 15.44 0 00-2.62-10.46c-1.51-2-4.19-3.4-6.37-2.05a5.329 5.329 0 00-2.11 3.94c-.49 3.26-.93 12.47 2.89 16 .43.395.912.73 1.43 1 2.51 1.83 5 3.61 7.51 5.36 13.53 9.53 26.31 18.54 33.19 33.92.41 5.2 1.31 10.36 2.19 15.41.39 2.22.78 4.43 1.13 6.64 1.89 12.09 2.13 22.61.77 32-1.68-6.53-5.58-13.2-11.7-19.91-2.71-3-5.65-5.8-8.49-8.53l-1.24-1.19a5.682 5.682 0 004.26-2.07 12.796 12.796 0 002.72-9.58c-.34-1.85-1.65-3.78-3.68-3.67-1 .07-2.74.67-3.38 4-.16.82-.37 1.7-.58 2.59a26.85 26.85 0 00-1 7c-.83-.81-1.65-1.63-2.47-2.46a6.651 6.651 0 001.54-2.81c1.66-5.08 1.48-11.87-.48-18.17-1.09-3.49-3-4.11-4.1-4.17a4.54 4.54 0 00-3.5 1.66c-3.35 3.6-3 8.79-2.35 12.16a19.631 19.631 0 00-7.38-9.18c-2.25-1.49-5.44-2.41-7.66-.48a5.17 5.17 0 00-1.13 5.81 10.17 10.17 0 003.4 4 41.863 41.863 0 008.62 4.81c1.146.439 2.322.793 3.52 1.06h.1c.41.11.81.23 1.19.36a129.746 129.746 0 0011.69 12.29c2.81 2.69 5.71 5.48 8.36 8.39 8.06 8.86 12.07 17.52 11.91 25.74a1.409 1.409 0 001.06 1.4c.106.015.214.015.32 0a1.418 1.418 0 001-.44 1.422 1.422 0 00.83-.94c2.22-8.79 2.84-18.62 1.9-29.81 3-15.3 12.28-28.86 26-38.19a68.192 68.192 0 0113.94-7.06 111.68 111.68 0 0126.7-6.91c-1.7 2.52-2 7.61-1.94 12.94v.81a9.317 9.317 0 00.56 4 3.112 3.112 0 002 1.9c.131.034.265.057.4.07.66.06 2.29-.1 3.18-2.75.61-1.86 1.16-3.76 1.64-5.64 0-.09 2.14-8.75-.46-11.83 3.686-.283 7.384-.376 11.08-.28.105-.006.209-.023.31-.05.188.274.413.52.67.73a5.55 5.55 0 002.2 1c5 1.28 13.88-.93 14.89-1.29 3.09-1.11 5.1-2.62 6.14-4.63a3.998 3.998 0 00.49-2.56c-.36-2.06-2.49-3.22-5.55-3zm-74.11-9.79c-.38 9.33-.3 18.75-.21 27.91-3-3.57-4.11-9.19-3-15.6a75.849 75.849 0 011.94-7.79c.46-1.47.89-2.98 1.27-4.52zm1.81 21.4c-.06.47-.12 1-.18 1.58-.16 1.48-.44 4-1.13 5.11v-.19c-.09-9-.14-18.35.23-27.56a54.643 54.643 0 011.08 21.03v.03zm-7.53-1.54c-.37-4.7 1.46-9.49 3.08-13.72l.84-2.21-.12.41a78.467 78.467 0 00-2 7.86c-1.19 6.73 0 12.61 3.32 16.34-.15-.04-.297-.09-.44-.15-2.58-1.11-4.42-5.21-4.66-8.53h-.02zm10-40.74c1.31.34 2.57.7 3.62 1 1.85.52 3.27.69 4 1.32.73.63.55 2.08-.1 2.87a6 6 0 01-3.81 1.73 13.27 13.27 0 01-9.18-2.15c-2-1.35-4.27-4-4.15-5.09 0-.07 0-.29.63-.53 1.81-.74 5.6-.01 9.01.85h-.02zm19.36-15.94a2.81 2.81 0 011.69.55c.4.51-.23 1.71-1 2.47-2 1.9-4.76 3-7.41 4.07a36.917 36.917 0 01-7.92 2.54c-2.51.39-6.71-1.31-9.83-2.7a45.589 45.589 0 003.59-2.91 38.998 38.998 0 0120.87-4.02h.01zm-22.54-4.63l.16-1c.89-5.31 2.73-9.18 5.49-11.53l.19-.15c.025.223.025.447 0 .67a45.91 45.91 0 01-1.78 12.71 14.407 14.407 0 01-4.11 5.62c-.47.26-.93.53-1.37.81a64.506 64.506 0 001.41-7.13h.01zm-12.63-5a6.7 6.7 0 01.11-3.29c.3-.73 1-1.28 1.59-1.17h.05c.61.16 1.16 1 1.66 2.48 1.82 5.44 4 14.15 3.4 17.34a.997.997 0 01-.48.31c-.24.06-1-.29-2.11-2-1.92-2.76-3.3-7.24-4.23-13.64l.01-.03zm-8.35 17.22c-.75-1.08-1.42-2-1.93-2.66a5.868 5.868 0 01-1.09-1.75 1.13 1.13 0 01.09-1c.21-.23.75-.25 1.38-.09.191.045.379.105.56.18a12.39 12.39 0 016.2 6.4c1.29 2.75 2.27 6.1 2.19 7.33-2.05-.73-5.4-5.5-7.41-8.38l.01-.03zM27.93 41.66c.16-1.07.42-1.71.8-1.95.66-.4 1.91.38 2.61 1.33a12.66 12.66 0 012.07 8.54c-.24 3-1.2 5.87-2.1 6.22a.68.68 0 01-.43-.05l-.42-.31a1.75 1.75 0 00-.28-.13l-.25-.2c-2.4-2.21-2.61-9.33-2-13.45zm12.08 15.36a16.1 16.1 0 011.81-5.83 7.67 7.67 0 014.13-3.53c.027.206.027.414 0 .62a18.85 18.85 0 01-5 10.91 6.063 6.063 0 01-1 .84c-.15-1-.126-2.018.07-3.01h-.01zm14.92 56.82c.23-.94.45-1.86.62-2.72.24-1.31.64-1.73.76-1.74a1.92 1.92 0 01.7 1.34 10 10 0 01-2 7.19 3.51 3.51 0 01-1 .81 37.1 37.1 0 01.92-4.88zm-18.17-5.05a39.314 39.314 0 01-8-4.48 7.405 7.405 0 01-2.49-2.82 2.38 2.38 0 01.36-2.6 2.32 2.32 0 012.13-.27c.75.216 1.46.554 2.1 1a16.87 16.87 0 016.87 9.53 14.365 14.365 0 01-.99-.36h.02zm7.43-12.6a2 2 0 011.28-.77c.54 0 1.13.87 1.54 2.19 1.79 5.75 2 11.9.5 16.44a6.837 6.837 0 01-.58 1.36 13.308 13.308 0 01-1.25-1.68c-.14-.19-.27-.39-.41-.59-.23-.6-.58-1.45-1-2.36-.58-1.4-1.44-3.52-1.56-4-.64-2.65-1.36-7.57 1.46-10.59h.02zm-3.47 13.24a.93.93 0 010-.16 1.09 1.09 0 00-.02.16h.02zm106.53-21.3c-.46 1.81-1 3.64-1.59 5.44a3.246 3.246 0 01-.26.62v-.07a7.132 7.132 0 01-.33-2.82v-.81c0-10.75 1.54-11.65 1.87-11.72a.69.69 0 01.34 0 .2.2 0 01.12.07c1.05 1.07.53 6.65-.17 9.29h.02zm35.07-16.94c-.7 1.35-2.2 2.41-4.59 3.27-2.39.86-12.19 2.5-14.33.75a.628.628 0 01-.22-.7c.31-2 10.52-4.33 16.78-4.77a5.411 5.411 0 011.71.12c.49.13.82.33.86.57.001.27-.079.535-.23.76h.02z" fill="#0F1428"/><path d="M164.4 79.89c-.35-.16-.77-.37-1.23-.61-2.61-1.33-6.55-3.35-8.84-.67s.27 8.22 1.62 10.95a44.916 44.916 0 007.2 10.5 14.176 14.176 0 006.23 4.42l.29.08a6 6 0 006-1.45c1.61-1.79 1.49-4.26 1.2-6.21-.9-6.24-3.19-10.88-6.8-13.81a23.491 23.491 0 00-5.67-3.2zm5.79 21.88a11.768 11.768 0 01-5-3.62 42.68 42.68 0 01-6.82-10c-2.24-4.52-2.46-6.52-2.13-7.39a75.209 75.209 0 004.34 6.41c.94 1.19 2 2.35 3 3.46 1 1.11 1.86 2.12 2.74 3.22.57.72 1.13 1.46 1.68 2.21a32.513 32.513 0 004.89 5.59 4.167 4.167 0 01-2.7.12zm3.33-.55a30.262 30.262 0 01-4.92-5.59c-.56-.75-1.12-1.5-1.7-2.22-.88-1.12-1.84-2.2-2.76-3.24-.92-1.04-2-2.26-2.92-3.44a74.456 74.456 0 01-4.41-6.52 2.451 2.451 0 011.51 0c1.245.389 2.448.901 3.59 1.53.52.27 1 .51 1.38.68a21.486 21.486 0 015 2.81c3.78 3.07 5.23 8.23 5.78 12 .25 2.07.09 3.26-.55 3.99zM17.93 71.19c.47-.17 1.15-.37 1.94-.62 5.09-1.55 13.61-4.15 12.13-9.11a5.182 5.182 0 00-2.62-3.19c-3.6-1.88-9.39-.38-14 1.13-3.45 1.12-7.67 2.9-9.71 6.69-1 1.82-1.24 4.35.39 5.92a3.93 3.93 0 001.85 1c.833.19 1.693.23 2.54.12a32.837 32.837 0 007.48-1.94zm-9.81-3.76c1.57-2.9 5.15-4.38 8.1-5.34 2.18-.71 8.84-2.89 11.84-1.31a2.4 2.4 0 011.23 1.49c.67 2.26-7.55 4.77-10.25 5.59-.84.26-1.56.48-2.07.66a29.552 29.552 0 01-6.85 1.79 2.78 2.78 0 01-2.14-.34c-.53-.48-.32-1.68.13-2.54h.01zM3.93 51.49a72.003 72.003 0 0010.24 3.7c3.5.89 6 .95 7.41.17a3 3 0 001.57-2.24 3.71 3.71 0 00-.81-2.85c-3-4-13.89-6.78-15.89-7a7.72 7.72 0 00-3.62.19 4 4 0 00-2.81 3.38c-.09 1.31.48 3.19 3.91 4.65zM2.84 47a1.3 1.3 0 01.91-.9 5.19 5.19 0 012.33-.06c2.75.36 11.95 3.18 14 5.92a.85.85 0 01.14.92c-1.21.66-5.9 0-15.25-4-1.37-.59-2.18-1.3-2.14-1.85l.01-.03zm22.75 26.18a4.69 4.69 0 00.71 5.42 4.06 4.06 0 001.84 1 5.07 5.07 0 002.62-.05 8.773 8.773 0 003.35-2c.08-.07 7.52-7 5.62-10.36-1.21-2.12-4.47-1-5.69-.58a18.998 18.998 0 00-5.28 3.08 9.999 9.999 0 00-3.17 3.49zm9.37-3.86a7.431 7.431 0 012.23-.51c-.32 1.36-2.9 4.89-4.92 6.62a6.39 6.39 0 01-2.27 1.4 1.85 1.85 0 01-1.74-.27 2 2 0 01-.12-2.15 7.649 7.649 0 012.34-2.45 16.318 16.318 0 014.45-2.64h.03zm-15.35 60.53a8.51 8.51 0 002.77.15c6.85-.53 18.77-2.3 21.66-8.11 1.16-2.33.49-3.85-.26-4.72-3.42-3.91-16.18-1.5-18.18-.83-5.1 1.74-8.36 4.88-8.93 8.62a4.54 4.54 0 00.65 3.38 3.93 3.93 0 002.29 1.51zm-.14-4.47c.57-3.77 5.12-5.7 7-6.35 2.3-.78 9.9-1.73 13.5-.81.61.105 1.174.391 1.62.82.12.13.42.47-.14 1.59-1.63 3.28-8.86 5.73-19.34 6.55-1.38.1-2.23-.06-2.54-.49a1.91 1.91 0 01-.1-1.31zm16.46 9.37c-.75 1.84-.11 2.87.34 3.32.33.326.74.558 1.19.67.257.056.518.089.78.1a10.608 10.608 0 006.44-2.33c2.24-1.58 5.36-4 6.57-7a1.41 1.41 0 00-.28-1.5 6.83 6.83 0 00-5-2.26 7.005 7.005 0 00-3.16 1.05 16.29 16.29 0 00-6.88 7.95zm10.15-6.13c.25-.008.498.019.74.08.485.134.943.354 1.35.65a20.006 20.006 0 01-5.13 4.85 7.817 7.817 0 01-4.55 1.79l.06-.17a13.432 13.432 0 015.68-6.52 4.179 4.179 0 011.84-.68h.01zm88.28-10.51a1.446 1.446 0 001.08-.64 1.392 1.392 0 00.15-1.24 37.995 37.995 0 00-14.27-18.86c-3.18-2.2-14-9.06-19-5a4.999 4.999 0 00-2 3.8c-.09 3.56 3.46 7 6.8 10l.56.5c6.07 5.53 12.28 9.12 18.3 10.66 2.732.718 5.563.982 8.38.78zm-30.91-22.79c1.74.95 3.7 1.93 5.6 2.88 2.45 1.22 5 2.48 7 3.68a52.138 52.138 0 018.25 5.6 33.795 33.795 0 015.28 6.53l.83 1.22a103.157 103.157 0 01-25-17.27 12.322 12.322 0 01-2.07-2.33c.026-.107.063-.21.11-.31zm5.36-1.07a37.9 37.9 0 0110.9 5.45 35.187 35.187 0 0112.52 15.63h-.89l-1.16-1.68a33.615 33.615 0 00-5.39-6.66 51.75 51.75 0 00-8.36-5.68c-2.06-1.22-4.6-2.48-7.06-3.71-1.86-.92-3.77-1.87-5.47-2.8.08-.07.14-.15.24-.23.98-.83 2.66-.83 4.67-.32zm.81 10.31l-.57-.52c-1.64-1.47-5.33-4.77-5.8-7.27a16.637 16.637 0 001.68 1.72 103.67 103.67 0 0023.29 16.41c-7.4-1.41-13.99-6.16-18.6-10.34zm-50.9-31.28a2.67 2.67 0 001.45 0c3.62-1.11 5.47-10.25 5.34-12.27a44.073 44.073 0 00-2.45-10.55 1.42 1.42 0 00-2.57-.29c-1.76 3-7.62 15.19-4.25 20.94a4.159 4.159 0 002.48 2.17zM41.93 19.62a6.51 6.51 0 00-2.37 1.34 5.52 5.52 0 00-2.32 4.88 5.32 5.32 0 001.06 2.4 6.75 6.75 0 003.66 2.59c.246.067.497.114.75.14a6.14 6.14 0 005.19-2.32 4.792 4.792 0 001.2-3.82 5.16 5.16 0 00-.69-1.7c-1.39-2.22-3.79-4.3-6.48-3.51zm18.32 1.61c.1-.512.1-1.038 0-1.55a7 7 0 00-.29-1.47 4.57 4.57 0 00-3.67-3.17 4.409 4.409 0 00-4.26 2.05 5.46 5.46 0 00-.38 5.22 4.461 4.461 0 002.86 2.58c.207.049.418.082.63.1 1.85.13 3.23-1.16 4.12-2.14.46-.449.8-1.006.99-1.62zm-2.78-1.2a2.26 2.26 0 010 .5c-.09.158-.2.303-.33.43-.74.833-1.34 1.233-1.8 1.2a1.53 1.53 0 01-1.1-1 2.69 2.69 0 01.15-2.49 1.59 1.59 0 011.53-.82 1.77 1.77 0 011.35 1.28c.097.292.164.594.2.9zm-11.54-5.21l.54.16a3.59 3.59 0 002.28-.07 3.42 3.42 0 002-3.33 4.88 4.88 0 00-2.47-4 3.47 3.47 0 00-3.58.15 4.36 4.36 0 00-1.8 2.71 3.6 3.6 0 000 2c.47 1.59 2.23 2.14 3.03 2.38zm-.33-3.74a1.57 1.57 0 01.58-1 .62.62 0 01.53-.11c.069.016.136.04.2.07a2.07 2.07 0 011 1.59.83.83 0 01-.18.63 2.17 2.17 0 01-.91-.18c-1-.32-1.18-.55-1.2-.61a.89.89 0 01-.07-.39h.05zm52.27 107.46c-.8.387-1.49.972-2 1.7a6.483 6.483 0 00-1.36 5 6.115 6.115 0 003.7 4.31c.296.124.6.228.91.31a4.356 4.356 0 003.1-.25 5.008 5.008 0 001.44-1.14c1.74-1.92 3-4.83 1.5-7.22a6.563 6.563 0 00-2-1.88 5.491 5.491 0 00-2.537-1.102 5.49 5.49 0 00-2.753.272zm35.18-63.58a5.572 5.572 0 00-5.35-.83 5.342 5.342 0 00-2 1.71 6.451 6.451 0 00-1.35 5 6.125 6.125 0 003.7 4.31c.29.127.592.227.9.3a4.44 4.44 0 003.11-.24 5.101 5.101 0 001.43-1.15c1.74-1.92 3-4.82 1.51-7.21a6.645 6.645 0 00-1.95-1.89zm-1.65 7.2a2.212 2.212 0 01-.6.51 2.001 2.001 0 01-1.63-.13 3.325 3.325 0 01-2-2.24 3.69 3.69 0 01.84-2.77c.229-.342.538-.623.9-.82a1.82 1.82 0 011.21 0 4.5 4.5 0 011.38.65 3.88 3.88 0 011.15 1.06c.65 1.01-.26 2.65-1.25 3.74zM108 139.21c.287.078.583.115.88.11a4.123 4.123 0 001.51-.42c.459-.19.898-.424 1.31-.7a4.574 4.574 0 001.633-1.924 4.573 4.573 0 00.367-2.496 4.39 4.39 0 00-3.18-3.49 5.457 5.457 0 00-5.12 1.13 4.285 4.285 0 00-1.56 4.11 5.223 5.223 0 003.22 3.32c.299.154.615.274.94.36zm-.76-5.64a2.717 2.717 0 012.34-.6h.09a1.586 1.586 0 011.22 1.23 1.728 1.728 0 01-.82 1.66c-.262.167-.54.308-.83.42a2.29 2.29 0 01-.46.17 1.73 1.73 0 01-.52-.19c-1-.47-1.57-.93-1.66-1.38a1.566 1.566 0 01.64-1.31zm8.15-6.21a4.886 4.886 0 003.13-3.52 3.466 3.466 0 00-1.17-3.38 4.35 4.35 0 00-3.11-1 3.55 3.55 0 00-1.87.6c-1.42 1-1.44 2.83-1.45 3.61a4.083 4.083 0 00.72 2.73c.412.497.973.848 1.6 1a3.854 3.854 0 002.15-.04zm-1.64-3.61c0-1.09.19-1.29.25-1.33.06-.04.1-.07.41-.09.215-.012.431.009.64.06.166.034.321.11.45.22a.62.62 0 01.24.68 2 2 0 01-1.24 1.37.851.851 0 01-.65 0 2.194 2.194 0 01-.1-.91zm19.67-83.41a4.894 4.894 0 003.14-3.51 3.477 3.477 0 00-1.17-3.38 4.32 4.32 0 00-3.11-1 3.571 3.571 0 00-1.87.59c-1.42 1-1.44 2.83-1.46 3.62a4.145 4.145 0 00.72 2.73 3 3 0 001.61 1 3.74 3.74 0 002.14-.05zm-1.54-2.68a2.095 2.095 0 01-.09-.92c0-1.09.19-1.29.25-1.34a.93.93 0 01.4-.08c.218-.012.438.008.65.06.164.035.318.107.45.21a.658.658 0 01.24.69 1.994 1.994 0 01-1.25 1.37 1.001 1.001 0 01-.6.01h-.05z" fill="#0F1428"/></g><defs><clipPath id="clip0_367_52"><path fill="#fff" d="M0 0h185.35v172.65H0z"/></clipPath></defs></svg>