<svg width="166" height="220" fill="none" xmlns="http://www.w3.org/2000/svg"><g clip-path="url(#clip0_367_36)"><path d="M38.39 160.34a46.313 46.313 0 009.12 4.65c4.26 1.42 13.56 1.79 19.25-1.28a10.402 10.402 0 003.1-2.48 90.16 90.16 0 004.24 23.38c1.46 4.54 4 11.12 8.88 15.81a1.419 1.419 0 001.01.391 1.4 1.4 0 00.99-.441c.085-.087.159-.185.22-.29a1.42 1.42 0 00-.27-1.71c-3.42-3.28-5.93-7.79-8.14-14.63a89.431 89.431 0 01-2.36-9c.257.365.571.685.93.95 7.06 5.2 15.11-16.79 15.43-21.07a.8.8 0 00-.09-.53c-.24-.34-.77-.11-1.1.13-2.47 1.84-14.72 11.49-15.7 17.75a86.252 86.252 0 01-1.24-11.19c-.16-4.154-.08-8.315.24-12.46 1 .92 2.62 1.69 5.51 1.24 7.09-1.11 13.53-5.75 17.69-9.44 6-5.35 10.74-12 15.06-18.36 2.33-3.44 4.71-7 6.79-10.78a61.08 61.08 0 004-8.78 2.615 2.615 0 00-.35-2.89 2.658 2.658 0 00-2.83-.5 71.688 71.688 0 00-19.87 9.26 75.592 75.592 0 00-24.46 26.65c.37-2.6.76-5.19 1.14-7.75.79-5.24 1.61-10.65 2.19-16 .621-5.544.865-11.123.73-16.7l.38.12c2.09.56 4.5-.8 6.28-3.53a155.855 155.855 0 005.95-9.88 155.766 155.766 0 0016.13-43.52 1.403 1.403 0 00-.19-1.05 2.7 2.7 0 00-2.19-1.29c-1.61-.1-3.35 1.11-4.35 2.34a125.45 125.45 0 00-19.26 33c-.37.94-.82 2-1.3 3.11-1 2.25-2 4.76-2.86 7.26a54.469 54.469 0 00-7.59-19.54c-5.9-9.12-14.92-16-22.87-22.08a1.42 1.42 0 00-2.23.77c-5.1 19.57 5.73 42.32 24.12 50.71 2 .91 4.55 1.84 7.07 1.22.284 6.244.07 12.5-.64 18.71-.42 3.91-1 7.86-1.55 11.76-.1-.23-.21-.49-.32-.77-1.32-3.38-1.95-7-3.58-10.28-2.73-5.44-8-9.29-13.61-11.56-5.61-2.27-11.74-3.15-17.77-4l-15.14-2.16c-1.09 2.71.5 5.74 2.33 8 4.37 5.44 10.33 9.36 16.52 12.58a105.136 105.136 0 0023.88 8.95 35.565 35.565 0 006.26 1.31c.373.021.747.021 1.12 0-.1.69-.21 1.38-.31 2.07a247.387 247.387 0 00-2.89 25 26.942 26.942 0 00-4.53-5.32 27.211 27.211 0 00-12.7-6.54c-10.93-2.3-21.68 1.73-28.77 5.51a4.003 4.003 0 00-2.23 2.35c-.27 1.05-.07 2.62 2.43 4.14l14.3 8.68zm44.4-71c-1.16 1.78-2.48 2.52-3.19 2.33a1.001 1.001 0 01-.31-.2 312.184 312.184 0 0118.83-40l.39-.69c2.22-4 4.51-8.07 5.44-12.56l.27-.15a152.992 152.992 0 01-21.43 51.24v.03zm-.23-14.62c.49-1.15.94-2.22 1.32-3.18a122.93 122.93 0 0118.83-32.3 2.99 2.99 0 01.39-.41c-1 4.08-3.14 7.88-5.21 11.57l-.39.69a313.418 313.418 0 00-18.69 39.63 5.68 5.68 0 01-.36-1.82c-.24-3.96 2.21-9.63 4.11-14.18zM67.12 62.87a51.669 51.669 0 017.21 18.57 1343.53 1343.53 0 01-16.95-29.79 58.516 58.516 0 019.74 11.22zM55.78 50.21c6.11 11.11 12.45 22.26 18.88 33.2.18 1.13.35 2.29.48 3.47a91.006 91.006 0 00-8.18-12.55c-1-1.39-2-2.77-3-4.11-2-2.87-3.78-6-5.5-9-1.19-2.08-2.42-4.23-3.72-6.29-2.51-4-5.39-7.79-8.22-11.5 0-.2.07-.41.11-.62 3.12 2.4 6.21 4.82 9.15 7.4zm-9.39-5.79c2.68 3.51 5.4 7.14 7.78 10.91 1.3 2.05 2.52 4.2 3.71 6.27 1.72 3 3.5 6.13 5.53 9 .94 1.34 1.95 2.72 3 4.12 3.38 4.61 6.84 9.35 9 14.31a4.142 4.142 0 01-1.36.24 96.336 96.336 0 01-11.19-9.46 61.693 61.693 0 01-10-12.41c-3-5-4.95-10.6-6.81-16.07a38.57 38.57 0 01.34-6.91zm-.22 9.68a75.854 75.854 0 006 13.7 62.432 62.432 0 0010.09 12.55 98.784 98.784 0 0010.25 8.81 14.454 14.454 0 01-2.82-1c-13.1-5.98-22.03-19.75-23.52-34.06zm65.49 50.29c.62-.27 1.24-.52 1.86-.77-1.7 2.4-3.14 4.78-4.52 7.11a79.005 79.005 0 01-6.87 10.19c-5.83 7.07-11.85 14.39-18.79 20.61a11.893 11.893 0 01-9.09 3.16 6.268 6.268 0 010-1.07 165.072 165.072 0 0137.41-39.23zm-2.82 15.78c-4.21 6.2-8.82 12.69-14.6 17.83-3.87 3.44-9.83 7.76-16.23 8.75-1.68.27-2.79 0-3.31-.68a1.909 1.909 0 01-.31-.64 12.66 12.66 0 009.43-3.38c7-6.25 13-13.59 18.86-20.67a79.608 79.608 0 006.92-10.29c1.56-2.6 3.16-5.26 5.13-7.93 1.47-.56 3-1.06 4.46-1.5-2.44 6.61-6.29 12.53-10.36 18.51h.01zm-8.31-9.74a70.366 70.366 0 018.23-4.71 166.188 166.188 0 00-34.28 36.27 17.997 17.997 0 011.48-4.06c.37-.72.74-1.43 1.13-2.14a72.79 72.79 0 0123.43-25.36h.01zM34.94 143.8a48.429 48.429 0 0133.47 14.43 4.992 4.992 0 01-.63 1.05c-2.14-1.15-4.22-2.46-6.24-3.75-3.67-2.34-7.47-4.75-11.67-6.16-9.07-3-16.79-3.77-23.5-2.28a53.971 53.971 0 018.29-3.37.362.362 0 00.27.08h.01zm-10.28 4.45c7-2.06 15.19-1.47 25 1.8 4.12 1.37 7.87 3.76 11.51 6.08 1.81 1.15 3.68 2.34 5.6 3.41-6 .6-11.93-.67-17-2a138.735 138.735 0 01-25.11-9.29zm40.75 13c-4.8 2.58-13.13 2.37-17 1.08a43.48 43.48 0 01-8.56-4.38l-12.63-7.68a139.024 139.024 0 0022.3 8c5.19 1.36 11.25 2.63 17.34 2a9.14 9.14 0 01-1.45.95v.03zm-13.32-18.79a24.382 24.382 0 0111.35 5.87c3.86 3.57 5.83 7 5.25 9.2a49.249 49.249 0 00-32.21-14.34 33.652 33.652 0 0115.61-.76v.03z" fill="#0F1428"/><path d="M75.76 48.03a6.6 6.6 0 00.53-1.29 8.33 8.33 0 00-1.95-7.44 7 7 0 00-3.74-2.52 5.13 5.13 0 00-4.79 1.58c-2 2-3.19 5.22-2.72 7.56a7.09 7.09 0 006.26 5.61 6.92 6.92 0 006.41-3.5zm-9.89-2.67a6.5 6.5 0 011.92-5 2.47 2.47 0 012.18-.85 4.19 4.19 0 012.18 1.57 5.66 5.66 0 011.41 4.86 4 4 0 01-4 2.73 4.321 4.321 0 01-3.69-3.31zm18.51-9.46c.11.79.371 1.55.77 2.24a5.77 5.77 0 006.82 2.28 6.37 6.37 0 003.33-2.94 7 7 0 00.84-2.74 5.62 5.62 0 00-.31-2.46 5.42 5.42 0 00-4-3.25 6.32 6.32 0 00-5.85 1.32 6.08 6.08 0 00-1.6 5.55zm3.21.79a4.001 4.001 0 01.33-4.28 3.63 3.63 0 013.32-.61 2.62 2.62 0 011.94 1.48c.134.392.178.809.13 1.22a3.85 3.85 0 01-2.33 3.27 2.93 2.93 0 01-3.39-1.05v-.03zM73.44 24.18a3.69 3.69 0 001.72-1.46 2.84 2.84 0 00-.34-2.83 6.101 6.101 0 00-2.33-1.84c-3.49-1.76-4.87 3.72-2.87 5.86.304.348.693.61 1.13.76a3.59 3.59 0 002.69-.49zm6.64-20.22a3.19 3.19 0 003 1.59 2.56 2.56 0 002.05-1.13c.164-.29.266-.61.3-.94A3.24 3.24 0 0084.06.39c-2.16-1.4-5.18 1.2-3.98 3.57z" fill="#0F1428"/><path d="M41.66 113.96C19.21 125.48 1.98 148.15.14 173.31c-.73 10 1.28 20.85 8.53 27.74 4.52 4.31 10.61 6.6 16.69 8 18.54 4.23 38.05 1 56.79 4.19 13.69 2.3 27.19 8 41 6.21 20.9-2.71 36.26-22.61 40.42-43.28 14.64-72.96-71.91-87.85-121.91-62.21z" fill="#FFD4C5" opacity=".3"/></g><defs><clipPath id="clip0_367_36"><path fill="#fff" d="M0 0h165.18v219.78H0z"/></clipPath></defs></svg>